<mxfile host="app.diagrams.net" modified="2023-10-10T13:14:28.051Z" agent="Mozilla/5.0 (Windows NT 10.0; Win64; x64) AppleWebKit/537.36 (KHTML, like Gecko) Chrome/114.0.0.0 Safari/537.36" etag="MN1tv5PGP5-UUXnm-IVr" version="22.0.4" type="device">
  <diagram name="Página-1" id="CT0p_a3Uum_E8bm0EHn-">
    <mxGraphModel dx="1114" dy="786" grid="1" gridSize="10" guides="1" tooltips="1" connect="1" arrows="1" fold="1" page="1" pageScale="1" pageWidth="827" pageHeight="1169" math="0" shadow="0">
      <root>
        <mxCell id="0" />
        <mxCell id="1" parent="0" />
        <mxCell id="lgcUif5Nf1wcFY2GIxtH-1" value="ES" style="triangle;whiteSpace=wrap;html=1;rotation=90;" parent="1" vertex="1">
          <mxGeometry x="370" y="270" width="60" height="80" as="geometry" />
        </mxCell>
        <mxCell id="lgcUif5Nf1wcFY2GIxtH-2" value="EJEMPLAR" style="swimlane;childLayout=stackLayout;horizontal=1;startSize=50;horizontalStack=0;rounded=1;fontSize=14;fontStyle=0;strokeWidth=2;resizeParent=0;resizeLast=1;shadow=0;dashed=0;align=center;arcSize=4;whiteSpace=wrap;html=1;" parent="1" vertex="1">
          <mxGeometry x="320" y="10" width="160" height="120" as="geometry" />
        </mxCell>
        <mxCell id="lgcUif5Nf1wcFY2GIxtH-3" value="&lt;u&gt;Identificador&lt;br&gt;&lt;/u&gt;nombre&lt;br&gt;país origen&lt;br&gt;tipo alimentación" style="align=left;strokeColor=none;fillColor=none;spacingLeft=4;fontSize=12;verticalAlign=top;resizable=0;rotatable=0;part=1;html=1;" parent="lgcUif5Nf1wcFY2GIxtH-2" vertex="1">
          <mxGeometry y="50" width="160" height="70" as="geometry" />
        </mxCell>
        <mxCell id="lgcUif5Nf1wcFY2GIxtH-6" value="FELINOS" style="swimlane;childLayout=stackLayout;horizontal=1;startSize=50;horizontalStack=0;rounded=1;fontSize=14;fontStyle=0;strokeWidth=2;resizeParent=0;resizeLast=1;shadow=0;dashed=0;align=center;arcSize=4;whiteSpace=wrap;html=1;" parent="1" vertex="1">
          <mxGeometry x="20" y="400" width="160" height="120" as="geometry" />
        </mxCell>
        <mxCell id="lgcUif5Nf1wcFY2GIxtH-7" value="&lt;u&gt;Identificador&lt;br&gt;&lt;/u&gt;tamaño" style="align=left;strokeColor=none;fillColor=none;spacingLeft=4;fontSize=12;verticalAlign=top;resizable=0;rotatable=0;part=1;html=1;" parent="lgcUif5Nf1wcFY2GIxtH-6" vertex="1">
          <mxGeometry y="50" width="160" height="70" as="geometry" />
        </mxCell>
        <mxCell id="lgcUif5Nf1wcFY2GIxtH-8" value="AVES" style="swimlane;childLayout=stackLayout;horizontal=1;startSize=50;horizontalStack=0;rounded=1;fontSize=14;fontStyle=0;strokeWidth=2;resizeParent=0;resizeLast=1;shadow=0;dashed=0;align=center;arcSize=4;whiteSpace=wrap;html=1;" parent="1" vertex="1">
          <mxGeometry x="210" y="400" width="160" height="120" as="geometry" />
        </mxCell>
        <mxCell id="lgcUif5Nf1wcFY2GIxtH-9" value="&lt;u&gt;Identificador&lt;/u&gt;&lt;br&gt;color plumaje" style="align=left;strokeColor=none;fillColor=none;spacingLeft=4;fontSize=12;verticalAlign=top;resizable=0;rotatable=0;part=1;html=1;" parent="lgcUif5Nf1wcFY2GIxtH-8" vertex="1">
          <mxGeometry y="50" width="160" height="70" as="geometry" />
        </mxCell>
        <mxCell id="lgcUif5Nf1wcFY2GIxtH-10" value="REPTILES" style="swimlane;childLayout=stackLayout;horizontal=1;startSize=50;horizontalStack=0;rounded=1;fontSize=14;fontStyle=0;strokeWidth=2;resizeParent=0;resizeLast=1;shadow=0;dashed=0;align=center;arcSize=4;whiteSpace=wrap;html=1;" parent="1" vertex="1">
          <mxGeometry x="430" y="400" width="160" height="120" as="geometry" />
        </mxCell>
        <mxCell id="lgcUif5Nf1wcFY2GIxtH-11" value="&lt;u&gt;Identificador&lt;br&gt;&lt;/u&gt;venenoso" style="align=left;strokeColor=none;fillColor=none;spacingLeft=4;fontSize=12;verticalAlign=top;resizable=0;rotatable=0;part=1;html=1;" parent="lgcUif5Nf1wcFY2GIxtH-10" vertex="1">
          <mxGeometry y="50" width="160" height="70" as="geometry" />
        </mxCell>
        <mxCell id="lgcUif5Nf1wcFY2GIxtH-12" value="INSECTOS" style="swimlane;childLayout=stackLayout;horizontal=1;startSize=50;horizontalStack=0;rounded=1;fontSize=14;fontStyle=0;strokeWidth=2;resizeParent=0;resizeLast=1;shadow=0;dashed=0;align=center;arcSize=4;whiteSpace=wrap;html=1;" parent="1" vertex="1">
          <mxGeometry x="620" y="400" width="160" height="120" as="geometry" />
        </mxCell>
        <mxCell id="lgcUif5Nf1wcFY2GIxtH-13" value="&lt;u&gt;Identificador&lt;/u&gt;&lt;br&gt;volador&lt;br&gt;nº patas" style="align=left;strokeColor=none;fillColor=none;spacingLeft=4;fontSize=12;verticalAlign=top;resizable=0;rotatable=0;part=1;html=1;" parent="lgcUif5Nf1wcFY2GIxtH-12" vertex="1">
          <mxGeometry y="50" width="160" height="70" as="geometry" />
        </mxCell>
        <mxCell id="lgcUif5Nf1wcFY2GIxtH-15" value="" style="endArrow=none;html=1;rounded=0;" parent="1" source="lgcUif5Nf1wcFY2GIxtH-25" target="lgcUif5Nf1wcFY2GIxtH-1" edge="1">
          <mxGeometry relative="1" as="geometry">
            <mxPoint x="240" y="290" as="sourcePoint" />
            <mxPoint x="400" y="290" as="targetPoint" />
          </mxGeometry>
        </mxCell>
        <mxCell id="lgcUif5Nf1wcFY2GIxtH-16" value="" style="endArrow=none;html=1;rounded=0;" parent="1" source="lgcUif5Nf1wcFY2GIxtH-1" target="lgcUif5Nf1wcFY2GIxtH-6" edge="1">
          <mxGeometry relative="1" as="geometry">
            <mxPoint x="410" y="240" as="sourcePoint" />
            <mxPoint x="410" y="290" as="targetPoint" />
            <Array as="points">
              <mxPoint x="100" y="310" />
            </Array>
          </mxGeometry>
        </mxCell>
        <mxCell id="lgcUif5Nf1wcFY2GIxtH-17" value="" style="endArrow=none;html=1;rounded=0;" parent="1" source="lgcUif5Nf1wcFY2GIxtH-1" target="lgcUif5Nf1wcFY2GIxtH-8" edge="1">
          <mxGeometry relative="1" as="geometry">
            <mxPoint x="390" y="320" as="sourcePoint" />
            <mxPoint x="110" y="410" as="targetPoint" />
            <Array as="points">
              <mxPoint x="290" y="350" />
            </Array>
          </mxGeometry>
        </mxCell>
        <mxCell id="lgcUif5Nf1wcFY2GIxtH-18" value="" style="endArrow=none;html=1;rounded=0;" parent="1" source="lgcUif5Nf1wcFY2GIxtH-1" target="lgcUif5Nf1wcFY2GIxtH-10" edge="1">
          <mxGeometry relative="1" as="geometry">
            <mxPoint x="400" y="330" as="sourcePoint" />
            <mxPoint x="120" y="420" as="targetPoint" />
            <Array as="points">
              <mxPoint x="510" y="350" />
            </Array>
          </mxGeometry>
        </mxCell>
        <mxCell id="lgcUif5Nf1wcFY2GIxtH-19" value="" style="endArrow=none;html=1;rounded=0;" parent="1" source="lgcUif5Nf1wcFY2GIxtH-1" target="lgcUif5Nf1wcFY2GIxtH-12" edge="1">
          <mxGeometry relative="1" as="geometry">
            <mxPoint x="426" y="326" as="sourcePoint" />
            <mxPoint x="520" y="410" as="targetPoint" />
            <Array as="points">
              <mxPoint x="700" y="310" />
            </Array>
          </mxGeometry>
        </mxCell>
        <mxCell id="lgcUif5Nf1wcFY2GIxtH-20" value="(1,1)" style="text;html=1;align=center;verticalAlign=middle;resizable=0;points=[];autosize=1;strokeColor=none;fillColor=none;" parent="1" vertex="1">
          <mxGeometry x="389" y="240" width="50" height="30" as="geometry" />
        </mxCell>
        <mxCell id="lgcUif5Nf1wcFY2GIxtH-21" value="(0,1)" style="text;html=1;align=center;verticalAlign=middle;resizable=0;points=[];autosize=1;strokeColor=none;fillColor=none;" parent="1" vertex="1">
          <mxGeometry x="150" y="290" width="50" height="30" as="geometry" />
        </mxCell>
        <mxCell id="lgcUif5Nf1wcFY2GIxtH-22" value="(0,1)" style="text;html=1;align=center;verticalAlign=middle;resizable=0;points=[];autosize=1;strokeColor=none;fillColor=none;" parent="1" vertex="1">
          <mxGeometry x="600" y="290" width="50" height="30" as="geometry" />
        </mxCell>
        <mxCell id="lgcUif5Nf1wcFY2GIxtH-23" value="(0,1)" style="text;html=1;align=center;verticalAlign=middle;resizable=0;points=[];autosize=1;strokeColor=none;fillColor=none;" parent="1" vertex="1">
          <mxGeometry x="280" y="340" width="50" height="30" as="geometry" />
        </mxCell>
        <mxCell id="lgcUif5Nf1wcFY2GIxtH-24" value="(0,1)" style="text;html=1;align=center;verticalAlign=middle;resizable=0;points=[];autosize=1;strokeColor=none;fillColor=none;" parent="1" vertex="1">
          <mxGeometry x="470" y="340" width="50" height="30" as="geometry" />
        </mxCell>
        <mxCell id="lgcUif5Nf1wcFY2GIxtH-26" value="" style="endArrow=none;html=1;rounded=0;" parent="1" source="lgcUif5Nf1wcFY2GIxtH-2" target="lgcUif5Nf1wcFY2GIxtH-25" edge="1">
          <mxGeometry relative="1" as="geometry">
            <mxPoint x="400" y="130" as="sourcePoint" />
            <mxPoint x="400" y="280" as="targetPoint" />
          </mxGeometry>
        </mxCell>
        <mxCell id="lgcUif5Nf1wcFY2GIxtH-25" value="" style="ellipse;whiteSpace=wrap;html=1;aspect=fixed;" parent="1" vertex="1">
          <mxGeometry x="375" y="180" width="50" height="50" as="geometry" />
        </mxCell>
        <mxCell id="lgcUif5Nf1wcFY2GIxtH-27" value="" style="shape=requiredInterface;html=1;verticalLabelPosition=bottom;sketch=0;rotation=90;" parent="1" vertex="1">
          <mxGeometry x="368.75" y="217.5" width="73.75" height="211.25" as="geometry" />
        </mxCell>
      </root>
    </mxGraphModel>
  </diagram>
</mxfile>
